<mxfile host="app.diagrams.net" modified="2024-05-21T12:32:11.279Z" agent="Mozilla/5.0 (Windows NT 10.0; Win64; x64) AppleWebKit/537.36 (KHTML, like Gecko) Chrome/124.0.0.0 Safari/537.36" etag="nQMy8OhQTMROQ1xXoLgX" version="24.4.4" type="github">
  <diagram name="Page-1" id="ohUonCIYlBYDiIGMRfXh">
    <mxGraphModel dx="1434" dy="784" grid="1" gridSize="10" guides="1" tooltips="1" connect="1" arrows="1" fold="1" page="1" pageScale="1" pageWidth="827" pageHeight="1169" math="0" shadow="0">
      <root>
        <mxCell id="0" />
        <mxCell id="1" parent="0" />
        <mxCell id="A_gZfN2XghJeAkzwa02Y-7" style="edgeStyle=orthogonalEdgeStyle;rounded=0;orthogonalLoop=1;jettySize=auto;html=1;exitX=0.5;exitY=1;exitDx=0;exitDy=0;entryX=0.5;entryY=0;entryDx=0;entryDy=0;" edge="1" parent="1" source="A_gZfN2XghJeAkzwa02Y-1" target="A_gZfN2XghJeAkzwa02Y-3">
          <mxGeometry relative="1" as="geometry" />
        </mxCell>
        <mxCell id="A_gZfN2XghJeAkzwa02Y-1" value="Start" style="rounded=1;whiteSpace=wrap;html=1;" vertex="1" parent="1">
          <mxGeometry x="354" y="60" width="120" height="60" as="geometry" />
        </mxCell>
        <mxCell id="A_gZfN2XghJeAkzwa02Y-9" style="edgeStyle=orthogonalEdgeStyle;rounded=0;orthogonalLoop=1;jettySize=auto;html=1;exitX=0.5;exitY=1;exitDx=0;exitDy=0;entryX=0.5;entryY=0;entryDx=0;entryDy=0;" edge="1" parent="1" source="A_gZfN2XghJeAkzwa02Y-2" target="A_gZfN2XghJeAkzwa02Y-4">
          <mxGeometry relative="1" as="geometry" />
        </mxCell>
        <mxCell id="A_gZfN2XghJeAkzwa02Y-2" value="Generate blanks = to the letters in the random word" style="rounded=1;whiteSpace=wrap;html=1;" vertex="1" parent="1">
          <mxGeometry x="354" y="260" width="120" height="60" as="geometry" />
        </mxCell>
        <mxCell id="A_gZfN2XghJeAkzwa02Y-8" style="edgeStyle=orthogonalEdgeStyle;rounded=0;orthogonalLoop=1;jettySize=auto;html=1;exitX=0.5;exitY=1;exitDx=0;exitDy=0;entryX=0.5;entryY=0;entryDx=0;entryDy=0;" edge="1" parent="1" source="A_gZfN2XghJeAkzwa02Y-3" target="A_gZfN2XghJeAkzwa02Y-2">
          <mxGeometry relative="1" as="geometry" />
        </mxCell>
        <mxCell id="A_gZfN2XghJeAkzwa02Y-3" value="Generate a random word" style="rounded=1;whiteSpace=wrap;html=1;" vertex="1" parent="1">
          <mxGeometry x="354" y="160" width="120" height="60" as="geometry" />
        </mxCell>
        <mxCell id="A_gZfN2XghJeAkzwa02Y-20" style="edgeStyle=orthogonalEdgeStyle;rounded=0;orthogonalLoop=1;jettySize=auto;html=1;exitX=0.5;exitY=1;exitDx=0;exitDy=0;entryX=0.5;entryY=0;entryDx=0;entryDy=0;" edge="1" parent="1" source="A_gZfN2XghJeAkzwa02Y-4" target="A_gZfN2XghJeAkzwa02Y-10">
          <mxGeometry relative="1" as="geometry" />
        </mxCell>
        <mxCell id="A_gZfN2XghJeAkzwa02Y-4" value="ask the user to guess a letter" style="rounded=1;whiteSpace=wrap;html=1;" vertex="1" parent="1">
          <mxGeometry x="354" y="360" width="120" height="60" as="geometry" />
        </mxCell>
        <mxCell id="A_gZfN2XghJeAkzwa02Y-21" style="edgeStyle=orthogonalEdgeStyle;rounded=0;orthogonalLoop=1;jettySize=auto;html=1;exitX=0;exitY=0.5;exitDx=0;exitDy=0;" edge="1" parent="1" source="A_gZfN2XghJeAkzwa02Y-10" target="A_gZfN2XghJeAkzwa02Y-12">
          <mxGeometry relative="1" as="geometry" />
        </mxCell>
        <mxCell id="A_gZfN2XghJeAkzwa02Y-38" value="Yes" style="edgeLabel;html=1;align=center;verticalAlign=middle;resizable=0;points=[];" vertex="1" connectable="0" parent="A_gZfN2XghJeAkzwa02Y-21">
          <mxGeometry x="-0.504" y="-1" relative="1" as="geometry">
            <mxPoint as="offset" />
          </mxGeometry>
        </mxCell>
        <mxCell id="A_gZfN2XghJeAkzwa02Y-22" style="edgeStyle=orthogonalEdgeStyle;rounded=0;orthogonalLoop=1;jettySize=auto;html=1;exitX=1;exitY=0.5;exitDx=0;exitDy=0;entryX=0.5;entryY=0;entryDx=0;entryDy=0;" edge="1" parent="1" source="A_gZfN2XghJeAkzwa02Y-10" target="A_gZfN2XghJeAkzwa02Y-11">
          <mxGeometry relative="1" as="geometry" />
        </mxCell>
        <mxCell id="A_gZfN2XghJeAkzwa02Y-37" value="NO" style="edgeLabel;html=1;align=center;verticalAlign=middle;resizable=0;points=[];" vertex="1" connectable="0" parent="A_gZfN2XghJeAkzwa02Y-22">
          <mxGeometry x="-0.344" y="1" relative="1" as="geometry">
            <mxPoint as="offset" />
          </mxGeometry>
        </mxCell>
        <mxCell id="A_gZfN2XghJeAkzwa02Y-10" value="is guessed letter in word?" style="rhombus;whiteSpace=wrap;html=1;" vertex="1" parent="1">
          <mxGeometry x="331" y="460" width="166" height="130" as="geometry" />
        </mxCell>
        <mxCell id="A_gZfN2XghJeAkzwa02Y-27" style="edgeStyle=orthogonalEdgeStyle;rounded=0;orthogonalLoop=1;jettySize=auto;html=1;exitX=0.5;exitY=1;exitDx=0;exitDy=0;entryX=0.5;entryY=0;entryDx=0;entryDy=0;" edge="1" parent="1" source="A_gZfN2XghJeAkzwa02Y-11" target="A_gZfN2XghJeAkzwa02Y-15">
          <mxGeometry relative="1" as="geometry" />
        </mxCell>
        <mxCell id="A_gZfN2XghJeAkzwa02Y-11" value="loose a life" style="rounded=1;whiteSpace=wrap;html=1;" vertex="1" parent="1">
          <mxGeometry x="497" y="590" width="120" height="60" as="geometry" />
        </mxCell>
        <mxCell id="A_gZfN2XghJeAkzwa02Y-28" style="edgeStyle=orthogonalEdgeStyle;rounded=0;orthogonalLoop=1;jettySize=auto;html=1;exitX=0.5;exitY=1;exitDx=0;exitDy=0;entryX=0.5;entryY=0;entryDx=0;entryDy=0;" edge="1" parent="1" source="A_gZfN2XghJeAkzwa02Y-12" target="A_gZfN2XghJeAkzwa02Y-16">
          <mxGeometry relative="1" as="geometry" />
        </mxCell>
        <mxCell id="A_gZfN2XghJeAkzwa02Y-12" value="replace the blank with the letter guessed" style="rounded=1;whiteSpace=wrap;html=1;" vertex="1" parent="1">
          <mxGeometry x="211" y="590" width="120" height="60" as="geometry" />
        </mxCell>
        <mxCell id="A_gZfN2XghJeAkzwa02Y-31" style="edgeStyle=orthogonalEdgeStyle;rounded=0;orthogonalLoop=1;jettySize=auto;html=1;exitX=1;exitY=0.5;exitDx=0;exitDy=0;entryX=1;entryY=0.5;entryDx=0;entryDy=0;" edge="1" parent="1" source="A_gZfN2XghJeAkzwa02Y-15" target="A_gZfN2XghJeAkzwa02Y-4">
          <mxGeometry relative="1" as="geometry">
            <Array as="points">
              <mxPoint x="640" y="720" />
              <mxPoint x="640" y="390" />
            </Array>
          </mxGeometry>
        </mxCell>
        <mxCell id="A_gZfN2XghJeAkzwa02Y-36" value="No" style="edgeLabel;html=1;align=center;verticalAlign=middle;resizable=0;points=[];" vertex="1" connectable="0" parent="A_gZfN2XghJeAkzwa02Y-31">
          <mxGeometry x="-0.7217" y="-3" relative="1" as="geometry">
            <mxPoint y="-163" as="offset" />
          </mxGeometry>
        </mxCell>
        <mxCell id="A_gZfN2XghJeAkzwa02Y-32" style="edgeStyle=orthogonalEdgeStyle;rounded=0;orthogonalLoop=1;jettySize=auto;html=1;exitX=0.5;exitY=1;exitDx=0;exitDy=0;entryX=0.5;entryY=0;entryDx=0;entryDy=0;" edge="1" parent="1" source="A_gZfN2XghJeAkzwa02Y-15" target="A_gZfN2XghJeAkzwa02Y-18">
          <mxGeometry relative="1" as="geometry" />
        </mxCell>
        <mxCell id="A_gZfN2XghJeAkzwa02Y-35" value="Yes" style="edgeLabel;html=1;align=center;verticalAlign=middle;resizable=0;points=[];" vertex="1" connectable="0" parent="A_gZfN2XghJeAkzwa02Y-32">
          <mxGeometry x="-0.56" relative="1" as="geometry">
            <mxPoint as="offset" />
          </mxGeometry>
        </mxCell>
        <mxCell id="A_gZfN2XghJeAkzwa02Y-15" value="all lifes lost?" style="rhombus;whiteSpace=wrap;html=1;" vertex="1" parent="1">
          <mxGeometry x="517" y="680" width="80" height="80" as="geometry" />
        </mxCell>
        <mxCell id="A_gZfN2XghJeAkzwa02Y-29" style="edgeStyle=orthogonalEdgeStyle;rounded=0;orthogonalLoop=1;jettySize=auto;html=1;exitX=0;exitY=0.5;exitDx=0;exitDy=0;entryX=0;entryY=0.5;entryDx=0;entryDy=0;" edge="1" parent="1" source="A_gZfN2XghJeAkzwa02Y-16" target="A_gZfN2XghJeAkzwa02Y-4">
          <mxGeometry relative="1" as="geometry">
            <Array as="points">
              <mxPoint x="190" y="720" />
              <mxPoint x="190" y="390" />
            </Array>
          </mxGeometry>
        </mxCell>
        <mxCell id="A_gZfN2XghJeAkzwa02Y-33" value="Yes" style="edgeLabel;html=1;align=center;verticalAlign=middle;resizable=0;points=[];" vertex="1" connectable="0" parent="A_gZfN2XghJeAkzwa02Y-29">
          <mxGeometry x="-0.1664" relative="1" as="geometry">
            <mxPoint y="-13" as="offset" />
          </mxGeometry>
        </mxCell>
        <mxCell id="A_gZfN2XghJeAkzwa02Y-30" style="edgeStyle=orthogonalEdgeStyle;rounded=0;orthogonalLoop=1;jettySize=auto;html=1;exitX=0.5;exitY=1;exitDx=0;exitDy=0;entryX=0.5;entryY=0;entryDx=0;entryDy=0;" edge="1" parent="1" source="A_gZfN2XghJeAkzwa02Y-16" target="A_gZfN2XghJeAkzwa02Y-17">
          <mxGeometry relative="1" as="geometry" />
        </mxCell>
        <mxCell id="A_gZfN2XghJeAkzwa02Y-34" value="No" style="edgeLabel;html=1;align=center;verticalAlign=middle;resizable=0;points=[];" vertex="1" connectable="0" parent="A_gZfN2XghJeAkzwa02Y-30">
          <mxGeometry x="-0.16" relative="1" as="geometry">
            <mxPoint as="offset" />
          </mxGeometry>
        </mxCell>
        <mxCell id="A_gZfN2XghJeAkzwa02Y-16" value="is there more blanks?" style="rhombus;whiteSpace=wrap;html=1;" vertex="1" parent="1">
          <mxGeometry x="231" y="680" width="80" height="80" as="geometry" />
        </mxCell>
        <mxCell id="A_gZfN2XghJeAkzwa02Y-17" value="You Win!" style="rounded=1;whiteSpace=wrap;html=1;" vertex="1" parent="1">
          <mxGeometry x="211" y="810" width="120" height="60" as="geometry" />
        </mxCell>
        <mxCell id="A_gZfN2XghJeAkzwa02Y-18" value="Game Over" style="rounded=1;whiteSpace=wrap;html=1;" vertex="1" parent="1">
          <mxGeometry x="497" y="810" width="120" height="60" as="geometry" />
        </mxCell>
      </root>
    </mxGraphModel>
  </diagram>
</mxfile>
